<svg width="126" height="163" viewBox="0 0 126 163" fill="none" xmlns="http://www.w3.org/2000/svg">
<path d="M92.5698 0C75.1498 4.94 66.2198 12.59 61.2198 21.63C55.3098 32.3 57.1898 46 56.5898 56C64.5298 53.31 77.2698 47 85.9398 34.31C90.1898 28.06 92.8498 17.06 92.5698 0ZM70.2298 37.84C69.4091 39.733 68.4843 41.5791 67.4598 43.37C66.4598 45.16 65.3498 46.92 64.1698 48.62C62.9937 50.354 61.6865 51.9955 60.2598 53.53L59.8398 53.29C60.3747 51.2658 61.0668 49.2864 61.9098 47.37C62.7298 45.47 63.6398 43.62 64.6198 41.8C65.5915 39.9789 66.6632 38.2128 67.8298 36.51C69.0061 34.7668 70.3454 33.1395 71.8298 31.65L72.2598 31.88C71.7769 33.9275 71.0971 35.9234 70.2298 37.84Z" fill="url(#paint0_linear_926_16)"/>
<path d="M72.9192 97L73.3992 96.44C73.3905 95.623 73.3236 94.8076 73.1992 94C70.4852 95.7395 67.4043 96.8247 64.1992 97.17L64.9092 102.96C68.0983 101.788 70.8801 99.7178 72.9192 97Z" fill="#673700"/>
<path d="M66.5109 159.27L49.2109 160.03C59.4409 148.92 66.8409 89.0002 53.8409 56.2902L60.1309 54.6602C74.5909 78.3102 66.5109 159.27 66.5109 159.27Z" fill="url(#paint1_linear_926_16)"/>
<path d="M37.26 23.5102C29 18.7202 16.75 14.8202 0 17.1802C1.54 31.4002 11.73 44.2902 19.33 49.6502C27.6 55.4802 44.86 57.6502 56.59 55.9802C55 45.8902 45.81 28.4502 37.26 23.5102ZM46.81 51.2202C44.97 50.2202 43.19 49.2202 41.45 48.1102C39.7161 47.0137 38.0466 45.8184 36.45 44.5302C34.7964 43.2344 33.2695 41.7846 31.89 40.2002L32.15 39.8002C34.156 40.4245 36.0981 41.2382 37.95 42.2302C39.7796 43.1836 41.5526 44.2421 43.26 45.4002C44.98 46.5402 46.65 47.7502 48.26 49.0502C49.9033 50.3503 51.4444 51.7745 52.87 53.3102L52.6 53.7202C50.6112 53.0302 48.676 52.1946 46.81 51.2202Z" fill="url(#paint2_linear_926_16)"/>
<path d="M99.3096 145.41C92.9954 141.333 87.5034 136.105 83.1196 130C81.1249 133.562 80.3356 137.673 80.8696 141.72C81.7481 146.457 83.8825 150.87 87.0496 154.5C87.0496 154.5 82.2896 155.74 83.4596 157.6C84.8396 159.8 94.2996 158.43 96.3296 156.01C97.4896 152.33 93.5596 148.45 93.5596 148.45L95.7996 145.3C96.9498 145.576 98.1444 145.614 99.3096 145.41Z" fill="url(#paint3_linear_926_16)"/>
<path d="M122.24 129.18C123.311 128.785 124.21 128.027 124.779 127.038C125.348 126.048 125.551 124.891 125.354 123.766C125.156 122.642 124.57 121.623 123.697 120.887C122.825 120.151 121.721 119.745 120.58 119.74H120.47C119.626 117.354 118.519 115.07 117.17 112.93C109 99.7798 94.88 93.2298 92.7 78.9998C92.57 78.1598 92.31 77.4198 92.15 76.7198C92.6913 76.6712 93.2156 76.5054 93.6865 76.2341C94.1574 75.9627 94.5637 75.5923 94.8772 75.1484C95.1908 74.7045 95.4041 74.1977 95.5024 73.6632C95.6007 73.1287 95.5817 72.5792 95.4466 72.0527C95.3115 71.5263 95.0636 71.0355 94.72 70.6144C94.3765 70.1933 93.9455 69.8518 93.4569 69.6138C92.9684 69.3757 92.4339 69.2467 91.8905 69.2356C91.3471 69.2246 90.8078 69.3318 90.31 69.5498C89.5646 67.7459 88.2928 66.2086 86.6606 65.1383C85.0284 64.068 83.1115 63.5144 81.16 63.5498C78.16 63.2898 73.29 61.5498 71.56 60.0498C66.85 63.7398 68.82 75.3298 69.92 78.0498C71.02 80.7698 74.86 90.9998 74.86 96.4198C74.86 96.6198 74.86 96.8098 74.86 97.0098C72.86 99.1198 69.7 104.36 60.04 105.51L59 114.59C62.46 114.42 73.12 110.59 76.17 108.83C77.6484 116.412 80.6525 123.614 85 130C95.39 143.72 118 156.59 118 156.59C118 156.59 112.53 162.59 117.79 162.33C123.05 162.07 124.27 156.42 124.27 156.42C124.27 156.42 126.82 151.85 122.89 146.07C120.46 142.57 122.54 136.76 122.24 129.18Z" fill="url(#paint4_linear_926_16)"/>
<defs>
<linearGradient id="paint0_linear_926_16" x1="56.5898" y1="27.99" x2="92.5898" y2="27.99" gradientUnits="userSpaceOnUse">
<stop stop-color="#73FF00"/>
<stop offset="1" stop-color="#39BB86"/>
</linearGradient>
<linearGradient id="paint1_linear_926_16" x1="49.2109" y1="107.34" x2="68.7609" y2="107.34" gradientUnits="userSpaceOnUse">
<stop stop-color="#9E592A"/>
<stop offset="1" stop-color="#D07700"/>
</linearGradient>
<linearGradient id="paint2_linear_926_16" x1="0" y1="36.5002" x2="56.59" y2="36.5002" gradientUnits="userSpaceOnUse">
<stop stop-color="#FCEE21"/>
<stop offset="1" stop-color="#4CD257"/>
</linearGradient>
<linearGradient id="paint3_linear_926_16" x1="80.6596" y1="144.36" x2="99.3096" y2="144.36" gradientUnits="userSpaceOnUse">
<stop stop-color="#733200"/>
<stop offset="1" stop-color="#D07700"/>
</linearGradient>
<linearGradient id="paint4_linear_926_16" x1="58.98" y1="111.17" x2="125.45" y2="111.17" gradientUnits="userSpaceOnUse">
<stop stop-color="#9E592A"/>
<stop offset="1" stop-color="#D07700"/>
</linearGradient>
</defs>
</svg>
