<svg xmlns="http://www.w3.org/2000/svg" version="1.1" xmlns:xlink="http://www.w3.org/1999/xlink" xmlns:svgjs="http://svgjs.dev/svgjs" width="144" height="144"><svg width="144" height="144" viewBox="0 0 144 144" fill="none" xmlns="http://www.w3.org/2000/svg">
<path d="M84 18V42C84 43.5913 84.6321 45.1174 85.7574 46.2426C86.8826 47.3679 88.4087 48 90 48H114" stroke="black" stroke-width="2" stroke-linecap="round" stroke-linejoin="round"></path>
<path d="M102 126H42C38.8174 126 35.7652 124.736 33.5147 122.485C31.2643 120.235 30 117.183 30 114V30C30 26.8174 31.2643 23.7652 33.5147 21.5147C35.7652 19.2643 38.8174 18 42 18H84L114 48V114C114 117.183 112.736 120.235 110.485 122.485C108.235 124.736 105.183 126 102 126Z" stroke="black" stroke-width="2" stroke-linecap="round" stroke-linejoin="round"></path>
<path d="M48 66H96V108H48V66Z" stroke="black" stroke-width="2" stroke-linecap="round" stroke-linejoin="round"></path>
<path d="M48 90H96" stroke="black" stroke-width="2" stroke-linecap="round" stroke-linejoin="round"></path>
<path d="M66 66V108" stroke="black" stroke-width="2" stroke-linecap="round" stroke-linejoin="round"></path>
<path d="M94.8468 56.8379C95.2503 56.8379 95.5809 56.978 95.8386 57.2581C96.1075 57.5271 96.242 57.8577 96.242 58.2499C96.242 58.6421 96.1075 58.9783 95.8386 59.2584C95.5809 59.5274 95.2503 59.6619 94.8468 59.6619C94.4546 59.6619 94.124 59.5218 93.8551 59.2416C93.5973 58.9615 93.4685 58.6309 93.4685 58.2499C93.4685 57.8689 93.5973 57.5383 93.8551 57.2581C94.124 56.978 94.4546 56.8379 94.8468 56.8379ZM98.6962 56.8379C99.0996 56.8379 99.4302 56.978 99.6879 57.2581C99.9569 57.5271 100.091 57.8577 100.091 58.2499C100.091 58.6421 99.9569 58.9783 99.6879 59.2584C99.4302 59.5274 99.0996 59.6619 98.6962 59.6619C98.304 59.6619 97.9734 59.5218 97.7044 59.2416C97.4467 58.9615 97.3178 58.6309 97.3178 58.2499C97.3178 57.8689 97.4467 57.5383 97.7044 57.2581C97.9734 56.978 98.304 56.8379 98.6962 56.8379ZM90.9975 56.8379C91.4009 56.8379 91.7315 56.978 91.9893 57.2581C92.2582 57.5271 92.3927 57.8577 92.3927 58.2499C92.3927 58.6421 92.2582 58.9783 91.9893 59.2584C91.7315 59.5274 91.4009 59.6619 90.9975 59.6619C90.6053 59.6619 90.2747 59.5218 90.0058 59.2416C89.748 58.9615 89.6191 58.6309 89.6191 58.2499C89.6191 57.8689 89.748 57.5383 90.0058 57.2581C90.2747 56.978 90.6053 56.8379 90.9975 56.8379Z" fill="black"></path>
<path d="M81.0123 50.2148C82.2338 50.2148 83.1863 50.6239 83.8699 51.4419C84.5647 52.2488 84.912 53.4142 84.912 54.9383C84.912 56.4063 84.5647 57.5605 83.8699 58.401C83.1751 59.2415 82.2169 59.6617 80.9955 59.6617C79.774 59.6617 78.8159 59.2527 78.1211 58.4346C77.4375 57.6166 77.0957 56.4511 77.0957 54.9383C77.0957 53.4478 77.4375 52.288 78.1211 51.4587C78.8159 50.6295 79.7796 50.2148 81.0123 50.2148ZM81.0123 51.963C80.508 51.963 80.1326 52.1983 79.8861 52.669C79.6395 53.1397 79.5162 53.8961 79.5162 54.9383C79.5162 56.0029 79.6339 56.7649 79.8692 57.2243C80.1158 57.6838 80.4912 57.9135 80.9955 57.9135C81.4997 57.9135 81.8752 57.6782 82.1217 57.2075C82.3682 56.7369 82.4915 55.9804 82.4915 54.9383C82.4915 53.8849 82.3682 53.1285 82.1217 52.669C81.8864 52.1983 81.5166 51.963 81.0123 51.963Z" fill="black"></path>
<path d="M76.9442 58.9724C76.6529 59.1965 76.3167 59.3646 75.9357 59.4767C75.5547 59.6 75.1736 59.6616 74.7926 59.6616C73.9298 59.6616 73.2742 59.4151 72.8259 58.922C72.3889 58.4289 72.1704 57.7397 72.1704 56.8544V52.1478H71.0273V50.4837H72.1704V48.5338L74.5069 48.248V50.4837H76.3559L76.1206 52.1478H74.5069V56.8376C74.5069 57.4764 74.759 57.7958 75.2633 57.7958C75.5322 57.7958 75.8292 57.7061 76.1542 57.5268L76.9442 58.9724Z" fill="black"></path>
<path d="M63.8254 50.2148C64.3969 50.2148 64.9348 50.3101 65.4391 50.5006C65.9433 50.6799 66.386 50.9432 66.767 51.2906L65.8929 52.585C65.2093 52.1367 64.565 51.9126 63.9598 51.9126C63.6124 51.9126 63.3435 51.991 63.153 52.1479C62.9737 52.2936 62.884 52.4953 62.884 52.7531C62.884 52.9436 62.9289 53.1004 63.0185 53.2237C63.1082 53.347 63.2707 53.4703 63.506 53.5935C63.7413 53.7168 64.0943 53.8569 64.565 54.0138C65.4054 54.2939 66.0274 54.6469 66.4308 55.0727C66.8454 55.4986 67.0528 56.0757 67.0528 56.8041C67.0528 57.6894 66.7166 58.3898 66.0442 58.9053C65.3718 59.4096 64.5257 59.6617 63.506 59.6617C62.8336 59.6617 62.2117 59.5496 61.6401 59.3255C61.0798 59.0902 60.5924 58.7764 60.1777 58.3842L61.304 57.1235C62.0212 57.6838 62.7272 57.9639 63.4219 57.9639C63.8029 57.9639 64.1055 57.8799 64.3296 57.7118C64.5538 57.5325 64.6658 57.286 64.6658 56.9722C64.6658 56.7369 64.621 56.5464 64.5314 56.4007C64.4417 56.255 64.2736 56.1205 64.0271 55.9973C63.7917 55.874 63.4275 55.7283 62.9345 55.5602C62.1052 55.2801 61.5001 54.9271 61.1191 54.5012C60.7493 54.0754 60.5643 53.5375 60.5643 52.8875C60.5643 52.3832 60.6932 51.9294 60.951 51.526C61.2199 51.1225 61.6009 50.8032 62.094 50.5678C62.5871 50.3325 63.1642 50.2148 63.8254 50.2148Z" fill="black"></path>
<path d="M57.2771 50.2148C57.8149 50.2148 58.3024 50.3045 58.7394 50.4838C59.1765 50.6519 59.5911 50.9152 59.9833 51.2738L58.9748 52.6186C58.4593 52.2264 57.9495 52.0303 57.4452 52.0303C56.8961 52.0303 56.4815 52.26 56.2013 52.7194C55.9324 53.1677 55.7979 53.9241 55.7979 54.9887C55.7979 56.0197 55.938 56.7481 56.2181 57.1739C56.4983 57.5885 56.9016 57.7959 57.4283 57.7959C57.6973 57.7959 57.9438 57.751 58.1679 57.6614C58.4033 57.5717 58.6666 57.426 58.958 57.2243L59.9833 58.6195C59.1989 59.3143 58.308 59.6617 57.3107 59.6617C56.0668 59.6617 55.0918 59.2583 54.3858 58.4514C53.691 57.6446 53.3438 56.4959 53.3438 55.0055C53.3438 54.0418 53.5006 53.2013 53.8144 52.4841C54.1394 51.7557 54.5987 51.1954 55.1927 50.8032C55.7866 50.411 56.4815 50.2148 57.2771 50.2148Z" fill="black"></path>
<path d="M51.766 50.484V59.393H49.4295V50.484H51.766ZM50.6061 45.9287C51.0095 45.9287 51.3401 46.0576 51.5979 46.3153C51.8668 46.5731 52.0013 46.898 52.0013 47.2903C52.0013 47.6825 51.8668 48.0131 51.5979 48.282C51.3401 48.5398 51.0095 48.6686 50.6061 48.6686C50.2027 48.6686 49.8665 48.5398 49.5976 48.282C49.3398 48.0131 49.2109 47.6825 49.2109 47.2903C49.2109 46.898 49.3398 46.5731 49.5976 46.3153C49.8665 46.0576 50.2027 45.9287 50.6061 45.9287Z" fill="black"></path>
</svg><style>@media (prefers-color-scheme: light) { :root { filter: none; } }
@media (prefers-color-scheme: dark) { :root { filter: none; } }
</style></svg>