<svg width="557" height="42" viewBox="0 0 557 42" fill="none" xmlns="http://www.w3.org/2000/svg">
<path d="M14.8449 5.6C16.7783 5.6 18.4949 5.91667 19.9949 6.55C21.4949 7.15 22.9449 8.06667 24.3449 9.3L20.8949 13.4C19.9616 12.6 19.0449 12.0167 18.1449 11.65C17.2449 11.25 16.2783 11.05 15.2449 11.05C10.6116 11.05 8.29492 15.25 8.29492 23.65C8.29492 27.9833 8.91159 31.15 10.1449 33.15C11.3783 35.15 13.0949 36.15 15.2949 36.15C16.4616 36.15 17.4949 35.9167 18.3949 35.45C19.2949 34.9833 20.2783 34.3167 21.3449 33.45L24.6949 37.5C23.5283 38.7667 22.1116 39.8 20.4449 40.6C18.7783 41.4 16.9283 41.8 14.8949 41.8C12.0616 41.8 9.57826 41.1333 7.44492 39.8C5.34492 38.4333 3.71159 36.4 2.54492 33.7C1.37826 30.9667 0.794922 27.6167 0.794922 23.65C0.794922 19.75 1.39492 16.45 2.59492 13.75C3.79492 11.05 5.46159 9.01666 7.59492 7.65C9.72826 6.28333 12.1449 5.6 14.8449 5.6ZM40.2367 13.8C41.1034 13.8 41.8867 13.9167 42.5867 14.15L41.4367 20.85C40.7367 20.65 40.0367 20.55 39.3367 20.55C37.9367 20.55 36.8534 21.0833 36.0867 22.15C35.3201 23.1833 34.7201 24.7667 34.2867 26.9V41H27.3367V14.5H33.3867L33.9367 19.3C34.5701 17.5333 35.4201 16.1833 36.4867 15.25C37.5534 14.2833 38.8034 13.8 40.2367 13.8ZM64.8359 27.15C64.8359 28.1833 64.7859 29.0833 64.6859 29.85H49.7859C49.9859 32.35 50.5359 34.1 51.4359 35.1C52.3359 36.1 53.5859 36.6 55.1859 36.6C56.2526 36.6 57.2359 36.4333 58.1359 36.1C59.0693 35.7333 60.0526 35.15 61.0859 34.35L63.9359 38.25C61.2359 40.6167 58.1526 41.8 54.6859 41.8C50.8193 41.8 47.8693 40.5833 45.8359 38.15C43.8026 35.6833 42.7859 32.2667 42.7859 27.9C42.7859 23.6333 43.7526 20.2 45.6859 17.6C47.6526 15 50.4026 13.7 53.9359 13.7C57.3693 13.7 60.0359 14.8667 61.9359 17.2C63.8693 19.5 64.8359 22.8167 64.8359 27.15ZM58.0359 25.15C58.0359 22.9167 57.7193 21.25 57.0859 20.15C56.4526 19.0167 55.4359 18.45 54.0359 18.45C52.7359 18.45 51.7359 18.9833 51.0359 20.05C50.3359 21.1167 49.9193 22.9333 49.7859 25.5H58.0359V25.15ZM87.5918 34C87.5918 34.9333 87.7085 35.6167 87.9418 36.05C88.2085 36.4833 88.6418 36.8333 89.2418 37.1L87.7918 41.7C86.3251 41.5333 85.1251 41.1667 84.1918 40.6C83.2918 40.0333 82.5918 39.15 82.0918 37.95C80.4585 40.5167 78.0751 41.8 74.9418 41.8C72.5751 41.8 70.6751 41.05 69.2418 39.55C67.8418 38.0167 67.1418 36.0333 67.1418 33.6C67.1418 30.7333 68.1085 28.5333 70.0418 27C71.9751 25.4667 74.7585 24.7 78.3918 24.7H80.7418V23.2C80.7418 21.5667 80.4251 20.4333 79.7918 19.8C79.1918 19.1333 78.1751 18.8 76.7418 18.8C75.0085 18.8 72.8918 19.2667 70.3918 20.2L68.8418 15.65C70.3085 15.0167 71.8251 14.5333 73.3918 14.2C74.9918 13.8667 76.4918 13.7 77.8918 13.7C81.1918 13.7 83.6251 14.4667 85.1918 16C86.7918 17.5333 87.5918 19.8167 87.5918 22.85V34ZM76.9418 36.8C78.5751 36.8 79.8418 35.8333 80.7418 33.9V28.65H79.0918C77.3918 28.65 76.1251 29.0167 75.2918 29.75C74.4585 30.45 74.0418 31.5333 74.0418 33C74.0418 34.2333 74.2918 35.1833 74.7918 35.85C75.2918 36.4833 76.0085 36.8 76.9418 36.8ZM108.396 39.75C107.53 40.4167 106.53 40.9167 105.396 41.25C104.263 41.6167 103.13 41.8 101.996 41.8C99.4298 41.8 97.4798 41.0667 96.1465 39.6C94.8465 38.1333 94.1965 36.0833 94.1965 33.45V19.45H90.7965V14.5H94.1965V8.7L101.146 7.85V14.5H106.646L105.946 19.45H101.146V33.4C101.146 35.3 101.896 36.25 103.396 36.25C104.196 36.25 105.08 35.9833 106.046 35.45L108.396 39.75ZM130.9 27.15C130.9 28.1833 130.85 29.0833 130.75 29.85H115.85C116.05 32.35 116.6 34.1 117.5 35.1C118.4 36.1 119.65 36.6 121.25 36.6C122.317 36.6 123.3 36.4333 124.2 36.1C125.134 35.7333 126.117 35.15 127.15 34.35L130 38.25C127.3 40.6167 124.217 41.8 120.75 41.8C116.884 41.8 113.934 40.5833 111.9 38.15C109.867 35.6833 108.85 32.2667 108.85 27.9C108.85 23.6333 109.817 20.2 111.75 17.6C113.717 15 116.467 13.7 120 13.7C123.434 13.7 126.1 14.8667 128 17.2C129.934 19.5 130.9 22.8167 130.9 27.15ZM124.1 25.15C124.1 22.9167 123.784 21.25 123.15 20.15C122.517 19.0167 121.5 18.45 120.1 18.45C118.8 18.45 117.8 18.9833 117.1 20.05C116.4 21.1167 115.984 22.9333 115.85 25.5H124.1V25.15ZM167.288 6.4L166.538 12H158.788V41H151.588V12H143.488V6.4H167.288ZM177.255 14.5V41H170.305V14.5H177.255ZM173.805 0.949997C175.005 0.949997 175.989 1.33333 176.755 2.1C177.555 2.86666 177.955 3.83333 177.955 5C177.955 6.16666 177.555 7.15 176.755 7.95C175.989 8.71667 175.005 9.1 173.805 9.1C172.605 9.1 171.605 8.71667 170.805 7.95C170.039 7.15 169.655 6.16666 169.655 5C169.655 3.83333 170.039 2.86666 170.805 2.1C171.605 1.33333 172.605 0.949997 173.805 0.949997ZM209.396 13.7C211.296 13.7 212.829 14.4 213.996 15.8C215.163 17.2 215.746 19.0833 215.746 21.45V41H208.846V22.4C208.846 20.1 208.163 18.95 206.796 18.95C206.063 18.95 205.379 19.25 204.746 19.85C204.113 20.4167 203.496 21.2833 202.896 22.45V41H196.046V22.4C196.046 20.1 195.363 18.95 193.996 18.95C193.229 18.95 192.529 19.25 191.896 19.85C191.263 20.4167 190.663 21.2833 190.096 22.45V41H183.196V14.5H189.246L189.746 17.8C190.646 16.4667 191.646 15.45 192.746 14.75C193.879 14.05 195.163 13.7 196.596 13.7C197.963 13.7 199.129 14.0833 200.096 14.85C201.096 15.5833 201.829 16.65 202.296 18.05C204.263 15.15 206.629 13.7 209.396 13.7ZM242.229 27.15C242.229 28.1833 242.179 29.0833 242.079 29.85H227.179C227.379 32.35 227.929 34.1 228.829 35.1C229.729 36.1 230.979 36.6 232.579 36.6C233.645 36.6 234.629 36.4333 235.529 36.1C236.462 35.7333 237.445 35.15 238.479 34.35L241.329 38.25C238.629 40.6167 235.545 41.8 232.079 41.8C228.212 41.8 225.262 40.5833 223.229 38.15C221.195 35.6833 220.179 32.2667 220.179 27.9C220.179 23.6333 221.145 20.2 223.079 17.6C225.045 15 227.795 13.7 231.329 13.7C234.762 13.7 237.429 14.8667 239.329 17.2C241.262 19.5 242.229 22.8167 242.229 27.15ZM235.429 25.15C235.429 22.9167 235.112 21.25 234.479 20.15C233.845 19.0167 232.829 18.45 231.429 18.45C230.129 18.45 229.129 18.9833 228.429 20.05C227.729 21.1167 227.312 22.9333 227.179 25.5H235.429V25.15ZM265.616 13.7C267.316 13.7 268.916 13.9833 270.416 14.55C271.916 15.0833 273.233 15.8667 274.366 16.9L271.766 20.75C269.733 19.4167 267.816 18.75 266.016 18.75C264.983 18.75 264.183 18.9833 263.616 19.45C263.083 19.8833 262.816 20.4833 262.816 21.25C262.816 21.8167 262.949 22.2833 263.216 22.65C263.483 23.0167 263.966 23.3833 264.666 23.75C265.366 24.1167 266.416 24.5333 267.816 25C270.316 25.8333 272.166 26.8833 273.366 28.15C274.599 29.4167 275.216 31.1333 275.216 33.3C275.216 35.9333 274.216 38.0167 272.216 39.55C270.216 41.05 267.699 41.8 264.666 41.8C262.666 41.8 260.816 41.4667 259.116 40.8C257.449 40.1 255.999 39.1667 254.766 38L258.116 34.25C260.249 35.9167 262.349 36.75 264.416 36.75C265.549 36.75 266.449 36.5 267.116 36C267.783 35.4667 268.116 34.7333 268.116 33.8C268.116 33.1 267.983 32.5333 267.716 32.1C267.449 31.6667 266.949 31.2667 266.216 30.9C265.516 30.5333 264.433 30.1 262.966 29.6C260.499 28.7667 258.699 27.7167 257.566 26.45C256.466 25.1833 255.916 23.5833 255.916 21.65C255.916 20.15 256.299 18.8 257.066 17.6C257.866 16.4 258.999 15.45 260.466 14.75C261.933 14.05 263.649 13.7 265.616 13.7ZM292.895 13.7C294.961 13.7 296.595 14.4 297.795 15.8C298.995 17.2 299.595 19.0833 299.595 21.45V41H292.645V22.4C292.645 21.1667 292.445 20.2833 292.045 19.75C291.678 19.2167 291.111 18.95 290.345 18.95C288.878 18.95 287.445 20.1667 286.045 22.6V41H279.095V3.95L286.045 3.25V17.55C287.011 16.25 288.045 15.2833 289.145 14.65C290.245 14.0167 291.495 13.7 292.895 13.7ZM326.115 27.15C326.115 28.1833 326.065 29.0833 325.965 29.85H311.065C311.265 32.35 311.815 34.1 312.715 35.1C313.615 36.1 314.865 36.6 316.465 36.6C317.532 36.6 318.515 36.4333 319.415 36.1C320.349 35.7333 321.332 35.15 322.365 34.35L325.215 38.25C322.515 40.6167 319.432 41.8 315.965 41.8C312.099 41.8 309.149 40.5833 307.115 38.15C305.082 35.6833 304.065 32.2667 304.065 27.9C304.065 23.6333 305.032 20.2 306.965 17.6C308.932 15 311.682 13.7 315.215 13.7C318.649 13.7 321.315 14.8667 323.215 17.2C325.149 19.5 326.115 22.8167 326.115 27.15ZM319.315 25.15C319.315 22.9167 318.999 21.25 318.365 20.15C317.732 19.0167 316.715 18.45 315.315 18.45C314.015 18.45 313.015 18.9833 312.315 20.05C311.615 21.1167 311.199 22.9333 311.065 25.5H319.315V25.15ZM351.311 27.15C351.311 28.1833 351.261 29.0833 351.161 29.85H336.261C336.461 32.35 337.011 34.1 337.911 35.1C338.811 36.1 340.061 36.6 341.661 36.6C342.727 36.6 343.711 36.4333 344.611 36.1C345.544 35.7333 346.527 35.15 347.561 34.35L350.411 38.25C347.711 40.6167 344.627 41.8 341.161 41.8C337.294 41.8 334.344 40.5833 332.311 38.15C330.277 35.6833 329.261 32.2667 329.261 27.9C329.261 23.6333 330.227 20.2 332.161 17.6C334.127 15 336.877 13.7 340.411 13.7C343.844 13.7 346.511 14.8667 348.411 17.2C350.344 19.5 351.311 22.8167 351.311 27.15ZM344.511 25.15C344.511 22.9167 344.194 21.25 343.561 20.15C342.927 19.0167 341.911 18.45 340.511 18.45C339.211 18.45 338.211 18.9833 337.511 20.05C336.811 21.1167 336.394 22.9333 336.261 25.5H344.511V25.15ZM370.506 39.75C369.639 40.4167 368.639 40.9167 367.506 41.25C366.373 41.6167 365.239 41.8 364.106 41.8C361.539 41.8 359.589 41.0667 358.256 39.6C356.956 38.1333 356.306 36.0833 356.306 33.45V19.45H352.906V14.5H356.306V8.7L363.256 7.85V14.5H368.756L368.056 19.45H363.256V33.4C363.256 35.3 364.006 36.25 365.506 36.25C366.306 36.25 367.189 35.9833 368.156 35.45L370.506 39.75ZM394.582 8.4C393.549 8.4 392.799 8.65 392.332 9.15C391.865 9.65 391.632 10.4667 391.632 11.6V14.5H397.182L396.432 19.45H391.632V41H384.682V19.45H381.082V14.5H384.682V11.65C384.682 9.11666 385.465 7.08333 387.032 5.55C388.599 3.98333 390.832 3.2 393.732 3.2C395.932 3.2 398.099 3.71666 400.232 4.75L398.332 9.3C397.099 8.7 395.849 8.4 394.582 8.4ZM412.844 13.8C413.711 13.8 414.494 13.9167 415.194 14.15L414.044 20.85C413.344 20.65 412.644 20.55 411.944 20.55C410.544 20.55 409.461 21.0833 408.694 22.15C407.927 23.1833 407.327 24.7667 406.894 26.9V41H399.944V14.5H405.994L406.544 19.3C407.177 17.5333 408.027 16.1833 409.094 15.25C410.161 14.2833 411.411 13.8 412.844 13.8ZM427.043 13.7C430.677 13.7 433.51 14.9167 435.543 17.35C437.61 19.75 438.643 23.2167 438.643 27.75C438.643 32.1167 437.61 35.55 435.543 38.05C433.477 40.55 430.627 41.8 426.993 41.8C423.36 41.8 420.51 40.5833 418.443 38.15C416.41 35.7167 415.393 32.25 415.393 27.75C415.393 23.3167 416.41 19.8667 418.443 17.4C420.51 14.9333 423.377 13.7 427.043 13.7ZM427.043 18.9C425.543 18.9 424.427 19.6 423.693 21C422.96 22.4 422.593 24.65 422.593 27.75C422.593 30.9167 422.943 33.1833 423.643 34.55C424.377 35.9167 425.493 36.6 426.993 36.6C428.493 36.6 429.61 35.9 430.343 34.5C431.077 33.1 431.443 30.85 431.443 27.75C431.443 24.6167 431.077 22.3667 430.343 21C429.643 19.6 428.543 18.9 427.043 18.9ZM469.504 13.7C471.404 13.7 472.937 14.4 474.104 15.8C475.27 17.2 475.854 19.0833 475.854 21.45V41H468.954V22.4C468.954 20.1 468.27 18.95 466.904 18.95C466.17 18.95 465.487 19.25 464.854 19.85C464.22 20.4167 463.604 21.2833 463.004 22.45V41H456.154V22.4C456.154 20.1 455.47 18.95 454.104 18.95C453.337 18.95 452.637 19.25 452.004 19.85C451.37 20.4167 450.77 21.2833 450.204 22.45V41H443.304V14.5H449.354L449.854 17.8C450.754 16.4667 451.754 15.45 452.854 14.75C453.987 14.05 455.27 13.7 456.704 13.7C458.07 13.7 459.237 14.0833 460.204 14.85C461.204 15.5833 461.937 16.65 462.404 18.05C464.37 15.15 466.737 13.7 469.504 13.7ZM494.978 33.4C496.178 33.4 497.161 33.8167 497.928 34.65C498.728 35.45 499.128 36.4333 499.128 37.6C499.128 38.7667 498.728 39.7667 497.928 40.6C497.161 41.4 496.178 41.8 494.978 41.8C493.811 41.8 492.828 41.3833 492.028 40.55C491.261 39.7167 490.878 38.7333 490.878 37.6C490.878 36.4667 491.261 35.4833 492.028 34.65C492.828 33.8167 493.811 33.4 494.978 33.4ZM510.556 14.5V41H503.606V14.5H510.556ZM507.106 0.949997C508.306 0.949997 509.29 1.33333 510.056 2.1C510.856 2.86666 511.256 3.83333 511.256 5C511.256 6.16666 510.856 7.15 510.056 7.95C509.29 8.71667 508.306 9.1 507.106 9.1C505.906 9.1 504.906 8.71667 504.106 7.95C503.34 7.15 502.956 6.16666 502.956 5C502.956 3.83333 503.34 2.86666 504.106 2.1C504.906 1.33333 505.906 0.949997 507.106 0.949997ZM526.947 13.7C528.547 13.7 529.997 13.9667 531.297 14.5C532.597 15 533.83 15.7833 534.997 16.85L531.997 20.85C530.464 19.6833 528.947 19.1 527.447 19.1C525.814 19.1 524.58 19.7833 523.747 21.15C522.947 22.4833 522.547 24.7333 522.547 27.9C522.547 30.9667 522.964 33.1333 523.797 34.4C524.63 35.6333 525.83 36.25 527.397 36.25C528.197 36.25 528.93 36.1167 529.597 35.85C530.297 35.5833 531.08 35.15 531.947 34.55L534.997 38.7C532.664 40.7667 530.014 41.8 527.047 41.8C523.347 41.8 520.447 40.6 518.347 38.2C516.28 35.8 515.247 32.3833 515.247 27.95C515.247 25.0833 515.714 22.5833 516.647 20.45C517.614 18.2833 518.98 16.6167 520.747 15.45C522.514 14.2833 524.58 13.7 526.947 13.7ZM546.427 13.7C548.127 13.7 549.727 13.9833 551.227 14.55C552.727 15.0833 554.043 15.8667 555.177 16.9L552.577 20.75C550.543 19.4167 548.627 18.75 546.827 18.75C545.793 18.75 544.993 18.9833 544.427 19.45C543.893 19.8833 543.627 20.4833 543.627 21.25C543.627 21.8167 543.76 22.2833 544.027 22.65C544.293 23.0167 544.777 23.3833 545.477 23.75C546.177 24.1167 547.227 24.5333 548.627 25C551.127 25.8333 552.977 26.8833 554.177 28.15C555.41 29.4167 556.027 31.1333 556.027 33.3C556.027 35.9333 555.027 38.0167 553.027 39.55C551.027 41.05 548.51 41.8 545.477 41.8C543.477 41.8 541.627 41.4667 539.927 40.8C538.26 40.1 536.81 39.1667 535.577 38L538.927 34.25C541.06 35.9167 543.16 36.75 545.227 36.75C546.36 36.75 547.26 36.5 547.927 36C548.593 35.4667 548.927 34.7333 548.927 33.8C548.927 33.1 548.793 32.5333 548.527 32.1C548.26 31.6667 547.76 31.2667 547.027 30.9C546.327 30.5333 545.243 30.1 543.777 29.6C541.31 28.7667 539.51 27.7167 538.377 26.45C537.277 25.1833 536.727 23.5833 536.727 21.65C536.727 20.15 537.11 18.8 537.877 17.6C538.677 16.4 539.81 15.45 541.277 14.75C542.743 14.05 544.46 13.7 546.427 13.7Z" fill="white"/>
</svg>
